<svg xmlns="http://www.w3.org/2000/svg" viewBox="0 0 1920 600"><defs><style>.cls-1{fill:#b6edff;}.cls-2{fill:#c6b3ac;}.cls-3{fill:#ff4c4c;}.cls-4{fill:#cdff6a;}.cls-5{fill:#39b54a;}.cls-6{fill:#91cd19;}.cls-7{fill:#33c16c;}.cls-8{fill:#d9e021;}.cls-9{fill:#fff495;}.cls-10{fill:#efa6bc;}.cls-11{fill:#e6e6e6;}.cls-12{fill:#fff;}.cls-13{fill:#0071bc;}.cls-14{fill:#93278f;}.cls-15{fill:#29abe2;}.cls-16{fill:#662d91;}</style></defs><title>bgtop</title><g id="Layer_1" data-name="Layer 1"><circle class="cls-1" cx="427.11" cy="83.01" r="166.04"/><circle class="cls-2" cx="1527.12" cy="106" r="174.01"/><circle class="cls-3" cx="1819" cy="97.02" r="87.95"/><circle class="cls-4" cx="128.28" cy="72.86" r="91.72"/><path class="cls-5" d="M199.24,131A91.45,91.45,0,0,0,217.6,93.78c-39-2.1-103.45.77-164.11,32.18a92,92,0,0,0,36.29,30.16C120.24,141.8,160.86,127.86,199.24,131Z"/><path class="cls-6" d="M205.85,121.82c-6-.47-12.57-.73-19.86-.73-47.83,0-79.81,19.06-97.74,34.31a91.78,91.78,0,0,0,117.6-33.58Z"/><path class="cls-7" d="M36.56,72.86a91.4,91.4,0,0,0,6,32.69c12.54-16.78,58.11-67.07,162.84-82.34a92.09,92.09,0,0,0-34.1-31.36c-38.84,13.48-88,35.22-134,69A93,93,0,0,0,36.56,72.86Z"/><path class="cls-8" d="M180.35-2.65A91.72,91.72,0,0,0,36.93,64.72C95.11,14,157.75.77,180.35-2.65Z"/><circle class="cls-9" cx="266.03" cy="346.02" r="249.03"/><path class="cls-10" d="M137.55,172.49c77.94-17,69.41-29.22,106-3.65s73.06,35.32,104.72,13.4c18.09-12.53,30.22-35,46.15-49.66A249.1,249.1,0,0,0,85.66,174.31C96,177.53,112.19,178,137.55,172.49Z"/><path class="cls-10" d="M157,315c36.53,21.92,66.46,14.44,132.16-31,65.7-37.4,89.47,22.52,129.65,62.09,21.25,20.92,61.2,29.08,94.15,32.13a251.07,251.07,0,0,0-.58-68.41c-16.45-.22-33.56-4.82-41.2-21.56-21.31-46.7-54.67-62.87-120.56-67-58-3.6-110.82,45.06-196.06,23.14-50.6-13-89.61-10.57-113-6.45a247.27,247.27,0,0,0-19.12,55.86A143,143,0,0,0,45,288.18C108.33,267.48,120.5,293.05,157,315Z"/><path class="cls-10" d="M463.27,498c-5.07-7.75-21.45-.84-14.27-23.22,35.78-111.57-44,9-119.77-1.28s-44-72.31-101.57-66.88-18.2,72-84.9,91.31c-12.92,3.74-38.12,7.17-36.92,38.71A248,248,0,0,0,266,595.06c2.17,0,4.33,0,6.49-.09A248.6,248.6,0,0,0,463.27,498Z"/><path class="cls-11" d="M1906,355.31q0,4.57-.17,9.11c-4.8,125-107.67,224.94-233.88,224.94a233.42,233.42,0,0,1-174.3-77.85q-5.18-5.77-10-11.88a233.21,233.21,0,0,1-39.82-76.52c24.12-12.41,52.24-16.35,84.23-4.51,124.63,46.13,156-68.69,214.92-98.13,41-20.52,101.18-24.36,154.78-9.5a234.11,234.11,0,0,1,4,34.7Q1906,350.47,1906,355.31Z"/><path class="cls-12" d="M1820,174c-36.41,16.8-58.78,65.39-99.45,68.92-45.14,3.93-106-38.81-179.59-6.87-31.83,13.83-59.24,19.76-81.69,21.47A234.08,234.08,0,0,1,1820,174Z"/><path class="cls-11" d="M1906,355.31q0,4.57-.17,9.11c-4.8,125-107.67,224.94-233.88,224.94a233.42,233.42,0,0,1-174.3-77.85q-5.18-5.77-10-11.88a233.21,233.21,0,0,1-39.82-76.52c24.12-12.41,52.24-16.35,84.23-4.51,124.63,46.13,156-68.69,214.92-98.13,41-20.52,101.18-24.36,154.78-9.5a234.11,234.11,0,0,1,4,34.7Q1906,350.47,1906,355.31Z"/><path class="cls-13" d="M1859.9,215.82c-42.25,25.09-107.54,72.74-198.26,48.71-114.82-30.42-37.29,40.24-176.64,64.77-17.26,3-32.61,5.05-46.28,6.24a232.25,232.25,0,0,1,20.52-78c22.45-1.71,49.86-7.64,81.69-21.47,73.55-31.94,134.45,10.8,179.59,6.87,40.67-3.53,63-52.12,99.45-68.92A234.24,234.24,0,0,1,1859.9,215.82Z"/><path class="cls-14" d="M1901.8,311c-53.6-14.86-113.73-11-154.78,9.5-58.88,29.44-90.29,144.26-214.92,98.13-32-11.84-60.11-7.9-84.23,4.51a233.85,233.85,0,0,1-10-67.8q0-10,.83-19.77c13.67-1.19,29-3.2,46.28-6.24,139.35-24.53,61.82-95.19,176.64-64.77,90.72,24,156-23.62,198.26-48.71A232.77,232.77,0,0,1,1901.8,311Z"/><path class="cls-15" d="M1906,355.31q0,4.57-.17,9.11c-38.88-3.77-78.56-2.54-101.89,6.1-53,19.62-55.94,138.37-198.24,124.63-42.16-4.07-78.2,3.57-108,16.36q-5.18-5.77-10-11.88a233.21,233.21,0,0,1-39.82-76.52c24.12-12.41,52.24-16.35,84.23-4.51,124.63,46.13,156-68.69,214.92-98.13,41-20.52,101.18-24.36,154.78-9.5a234.11,234.11,0,0,1,4,34.7Q1906,350.47,1906,355.31Z"/><path class="cls-16" d="M1905.83,364.42c-4.8,125-107.67,224.94-233.88,224.94a233.42,233.42,0,0,1-174.3-77.85c29.85-12.79,65.89-20.43,108-16.36,142.3,13.74,145.25-105,198.24-124.63C1827.27,361.88,1867,360.65,1905.83,364.42Z"/></g></svg>