<svg id="Layer_1" data-name="Layer 1" xmlns="http://www.w3.org/2000/svg" viewBox="0 0 320 150"><defs><style>.cls-1{fill:#2d1c1b;}.cls-2{fill:#fff;}</style></defs><title>logotest</title><circle class="cls-1" cx="160" cy="5" r="145"/><path class="cls-2" d="M77.44,56.49c.36,1.14,1.38,6.42,1.62,7.74s.84,7.08.9,7.8.24.42.24.42c6.66-2.16,8.52-4.62,8.52-4.62,2-2.58,1.86-5.88,1.62-8.64a5,5,0,0,0-3.9-4.74c-2.1-.6-4,1.5-4.14,1.68s-.3-.06-.3-.06a11,11,0,0,0-1.56-1.44,13.59,13.59,0,0,0-5.52-2.16,11,11,0,0,0-3.66.12c-.66.24-.48-.18-.48-.18A7.41,7.41,0,0,1,74.2,48c1.92-1.26,4-2.52,10.32-2.46a16,16,0,0,1,12,5.46A19.36,19.36,0,0,1,99.7,63.81c-.48,6.36-4.08,9.18-7.32,11.46s-11.58,5-11.82,5a.24.24,0,0,0-.18.3c.3,5.94.18,15,.18,15.3s.06.36-.18.36-8.7-.06-8.7-.06c-.54-.06-.36-.42-.36-.78s.12-2.16.12-2.16c.12-3.06.24-5.82.12-15.12-.18-12.48-1.32-17.82-1.38-18.42s.36-.66.36-.66c2.22-1,6.6-2.76,6.6-2.76C77.38,56.19,77.44,56.49,77.44,56.49Z"/><path class="cls-2" d="M129.16,101.37c-.36.3-6.36,2.88-6.6,2.94s-.54.18-.66-.24-1.62-7.62-2-9-1.92-8.52-2.1-8.52.48-.36-.54.12-4,1.56-4,1.56c-1.38.72-5,2.1-5.58,2.34a.8.8,0,0,0-.66.72s-.66,2.7-.84,3.84-.84,1.08-.84,1.08h-7c-.3-.06-.6,0-.54-.9s4.68-22.86,4.92-23.64,3.54-16.56,3.66-16.92a.61.61,0,0,1,.66-.48c.3,0,2.7-.06,3.48,0s7,.06,7.68.06.78.3.84.72,1.8,8,2,8.94,2.46,10.86,2.7,11.7.48.3.72.3,3.9-1.68,4.26-1.8.42-.12.42.12,0,2.88-.06,3.42.06,2.46.06,3.3-.3.78-.3.78-2.88,1.38-3.06,1.5-.3.24-.18.48,1.86,7.74,2.16,8.82,1.56,6.78,1.8,7.68S129.52,101.07,129.16,101.37ZM116,78.57c-.24-1.08-2.94-12.66-3.36-13.44-.12-.3-.24-.54-.3-.3,0,0-2.34,11.16-2.58,12.36s-.78,4.38-.78,4.56,0,.48.72.18,5.76-2.28,5.94-2.4S116.26,79.65,116,78.57Z"/><path class="cls-2" d="M136.9,54.69c1.62,4.8,5.7,15.48,5.88,16s.3.12.3.12c.72-1.62,8.76-23.4,9-24.12a.49.49,0,0,1,.84-.24s5.1,2.34,5.76,2.76.48.6.48.6c-.78,2.34-10.86,29.16-11.4,30.66a11.59,11.59,0,0,0-.6,1.86c-.18,1.5.12,18.84.12,18.84-.06.6-.06.48-.24.6s-6.72,2.64-7.38,2.76-.66-.24-.66-.66.06-20.76.06-21.24a3.48,3.48,0,0,0-.3-1.08c-.24-.72-9.72-26.22-9.9-26.7s-.18-.54.3-.54l7.26.06A.54.54,0,0,1,136.9,54.69Z"/><path class="cls-2" d="M186.1,101.37c-.36.3-6.36,2.88-6.6,2.94s-.54.18-.66-.24-1.62-7.62-2-9-1.92-8.52-2.1-8.52.48-.36-.54.12-4,1.56-4,1.56c-1.38.72-5,2.1-5.58,2.34a.8.8,0,0,0-.66.72s-.66,2.7-.84,3.84-.84,1.08-.84,1.08h-7c-.3-.06-.6,0-.54-.9s4.68-22.86,4.92-23.64,3.54-16.56,3.66-16.92a.61.61,0,0,1,.66-.48c.3,0,2.7-.06,3.48,0s7,.06,7.68.06.78.3.84.72,1.8,8,2,8.94,2.46,10.86,2.7,11.7.48.3.72.3,3.9-1.68,4.26-1.8.42-.12.42.12,0,2.88-.06,3.42.06,2.46.06,3.3-.3.78-.3.78-2.88,1.38-3.06,1.5-.3.24-.18.48,1.86,7.74,2.16,8.82,1.56,6.78,1.8,7.68S186.46,101.07,186.1,101.37ZM173,78.57c-.24-1.08-2.94-12.66-3.36-13.44-.12-.3-.24-.54-.3-.3,0,0-2.34,11.16-2.58,12.36s-.78,4.38-.78,4.56,0,.48.72.18,5.76-2.28,5.94-2.4S173.2,79.65,173,78.57Z"/><path class="cls-2" d="M210.46,45.75c.12.66,2.94,8.64,3.06,9.06s-.18.42-.18.42a35.21,35.21,0,0,0-5,.18c-3.84.24-10.14,2.4-11,6.72s4.38,7.5,4.38,7.5c10.44,4.74,12.12,8.76,12.12,8.76,4.2,5.94,2.4,12.78.78,15.84s-5.52,4.86-7.14,5.58a86.31,86.31,0,0,1-9.78,2.94,40.27,40.27,0,0,0-5.16,1.74c-.78.24-.72-.06-.78-.12s-2.58-9-2.76-9.42.3-.42.3-.42a29.39,29.39,0,0,0,12.78-1.08c6.36-2.16,5.7-7.86,5.7-7.86-1-5.58-4.5-5.58-10.44-9.06A16.08,16.08,0,0,1,189,65.13a13.08,13.08,0,0,1,2.7-10.74c3.12-3.78,8.1-4.86,12.18-6.18a29.36,29.36,0,0,0,6.06-2.52C210.28,45.27,210.46,45.75,210.46,45.75Z"/><path class="cls-2" d="M249.58,64.83a43.53,43.53,0,0,1,.18,19.74c-2.34,9.78-9.6,11.88-9.6,11.88A14.86,14.86,0,0,1,225.4,93c-6.72-5.88-5.64-16.74-5.34-18.24a38.35,38.35,0,0,1,1-4.38c.06-.18,0-.24.24-.24a1.08,1.08,0,0,1,.66.3,22.48,22.48,0,0,0,6.48,1.86c.66.12.42.36.42.36a40.75,40.75,0,0,0-.42,7.5c.36,8.94,6.78,8.82,6.78,8.82,4.56-.48,6.84-3.84,7.08-13.8s-3.36-12-3.36-12c-3.6-2.88-6.54-.36-6.54-.36a3.58,3.58,0,0,0-.3,5c-4,2.34-10.08-2.34-10.8-3s-.3-1-.3-1c3.78-11.58,15.3-10.56,15.3-10.56C247.06,53.79,249.58,64.83,249.58,64.83Z"/></svg>