<svg id="Layer_1" data-name="Layer 1" xmlns="http://www.w3.org/2000/svg" viewBox="0 0 250 80"><defs><style>.cls-1{fill:#fff;}</style></defs><title>logo</title><path class="cls-1" d="M14.42,15.2c.48,1.53,1.85,8.6,2.17,10.37S17.72,35.05,17.8,36s.32.56.32.56c8.92-2.89,11.41-6.19,11.41-6.19,2.73-3.45,2.49-7.87,2.17-11.57s-2.41-5.46-5.22-6.35-5.31,2-5.55,2.25-.4-.08-.4-.08a14.86,14.86,0,0,0-2.09-1.93,18.17,18.17,0,0,0-7.39-2.89A14.91,14.91,0,0,0,6.14,10c-.88.32-.64-.24-.64-.24a9.94,9.94,0,0,1,4.58-5.87C12.65,2.18,15.47.5,23.91.58A21.49,21.49,0,0,1,40,7.89c1.93,2.57,4.9,8.6,4.26,17.12s-5.47,12.3-9.81,15.35S18.92,47,18.6,47.11a.32.32,0,0,0-.24.4c.4,8,.24,20.09.24,20.5s.08.48-.24.48-11.65-.08-11.65-.08c-.73-.08-.49-.56-.49-1s.16-2.89.16-2.89c.17-4.1.33-7.8.17-20.25C6.3,27.5,4.78,20.35,4.7,19.54s.48-.88.48-.88C8.15,17.29,14,15,14,15,14.34,14.8,14.42,15.2,14.42,15.2Z"/><path class="cls-1" d="M83.7,75.32c-.49.4-8.52,3.86-8.84,3.94s-.73.24-.89-.32S71.8,68.73,71.24,66.88s-2.57-11.41-2.81-11.41.64-.48-.73.16-5.38,2.09-5.38,2.09c-1.85,1-6.67,2.81-7.48,3.13a1.07,1.07,0,0,0-.88,1s-.88,3.61-1.13,5.14c-.32,1.37-1.12,1.45-1.12,1.45h-9.4c-.41-.08-.81,0-.73-1.21s6.27-30.62,6.59-31.66,4.75-22.18,4.91-22.67a.81.81,0,0,1,.88-.64c.4,0,3.62-.08,4.66,0s9.32.08,10.29.08,1,.4,1.12,1,2.41,10.68,2.74,12,3.29,14.55,3.61,15.67.65.4,1,.4,5.22-2.25,5.7-2.41.57-.16.57.16,0,3.86-.08,4.58.08,3.3.08,4.43-.41,1-.41,1-3.85,1.85-4.09,2-.41.32-.25.64,2.5,10.37,2.9,11.82,2.09,9.08,2.41,10.28C84.5,75.24,84.18,74.92,83.7,75.32ZM66.1,44.78c-.33-1.45-3.94-17-4.51-18-.16-.4-.32-.73-.4-.4,0,0-3.13,14.94-3.45,16.55S56.69,48.8,56.69,49s0,.64,1,.24c1-.24,7.71-3.05,8-3.21S66.42,46.23,66.1,44.78Z"/><path class="cls-1" d="M94.06,12.79c2.17,6.43,7.64,20.74,7.88,21.38s.4.16.4.16c1-2.17,11.73-31.34,12-32.31a.67.67,0,0,1,1.13-.32s6.83,3.14,7.71,3.7.65.8.65.8c-1,3.14-14.55,39.06-15.27,41.07a15.36,15.36,0,0,0-.81,2.49c-.24,2,.16,25.24.16,25.24-.08.8-.08.64-.32.8s-9,3.54-9.88,3.7-.89-.32-.89-.89S97,50.81,97,50.16a4.64,4.64,0,0,0-.4-1.44c-.32-1-13-35.12-13.26-35.77s-.24-.72.4-.72l9.73.08A.71.71,0,0,1,94.06,12.79Z"/><path class="cls-1" d="M160,75.32c-.48.4-8.52,3.86-8.84,3.94s-.72.24-.88-.32-2.17-10.21-2.74-12.06-2.57-11.41-2.81-11.41.64-.48-.72.16-5.39,2.09-5.39,2.09c-1.85,1-6.67,2.81-7.47,3.13a1.07,1.07,0,0,0-.89,1s-.88,3.61-1.12,5.14c-.32,1.37-1.13,1.45-1.13,1.45h-9.4c-.4-.08-.8,0-.72-1.21s6.27-30.62,6.59-31.66,4.74-22.18,4.9-22.67a.81.81,0,0,1,.88-.64c.41,0,3.62-.08,4.67,0s9.32.08,10.28.08,1.05.4,1.13,1,2.41,10.68,2.73,12,3.3,14.55,3.62,15.67.64.4,1,.4,5.22-2.25,5.71-2.41.56-.16.56.16,0,3.86-.08,4.58.08,3.3.08,4.43-.4,1-.4,1-3.86,1.85-4.1,2-.4.32-.24.64,2.49,10.37,2.89,11.82,2.09,9.08,2.41,10.28C160.76,75.24,160.44,74.92,160,75.32Zm-17.6-30.54c-.32-1.45-3.94-17-4.5-18-.16-.4-.32-.73-.4-.4,0,0-3.14,14.94-3.46,16.55s-1,5.87-1,6.11,0,.64,1,.24c1-.24,7.72-3.05,8-3.21S142.68,46.23,142.36,44.78Z"/><path class="cls-1" d="M192.59.82c.16.88,3.93,11.57,4.1,12.13s-.25.57-.25.57a47.36,47.36,0,0,0-6.75.24c-5.14.32-13.58,3.21-14.7,9-1.29,5.7,5.86,10,5.86,10,14,6.35,16.24,11.74,16.24,11.74,5.62,8,3.21,17.12,1,21.22-2.17,3.93-7.39,6.51-9.56,7.47s-10.13,3.21-13.1,3.94a53.05,53.05,0,0,0-6.91,2.33c-1.05.32-1-.08-1.05-.16s-3.45-12.06-3.69-12.62.4-.56.4-.56a39.42,39.42,0,0,0,17.11-1.45c8.52-2.89,7.64-10.53,7.64-10.53-1.37-7.47-6-7.47-14-12.13S164.46,30.8,163.82,26.78s-.57-9.33,3.61-14.39,10.85-6.51,16.32-8.28A39.66,39.66,0,0,0,191.86.74C192.35.17,192.59.82,192.59.82Z"/><path class="cls-1" d="M245,26.38c3.46,15,.24,26.44.24,26.44-3.13,13.1-12.85,15.91-12.85,15.91a19.89,19.89,0,0,1-19.77-4.58c-9-7.88-7.56-22.42-7.16-24.43a50.93,50.93,0,0,1,1.37-5.87c.08-.24,0-.32.32-.32a1.43,1.43,0,0,1,.88.4,30.08,30.08,0,0,0,8.68,2.49c.89.16.57.48.57.48A54.33,54.33,0,0,0,216.69,47c.49,12,9.09,11.81,9.09,11.81,6.1-.64,9.16-5.14,9.48-18.48s-4.5-16.07-4.5-16.07c-4.82-3.86-8.76-.49-8.76-.49-3.46,3.22-.4,6.75-.4,6.75-5.31,3.14-13.51-3.13-14.47-4s-.4-1.37-.4-1.37c5.06-15.51,20.49-14.15,20.49-14.15C241.61,11.59,245,26.38,245,26.38Z"/></svg>