<svg id="Layer_1" data-name="Layer 1" xmlns="http://www.w3.org/2000/svg" xmlns:xlink="http://www.w3.org/1999/xlink" viewBox="0 0 1000 1000"><defs><style>.cls-1{fill:none;}.cls-2{fill:aqua;}.cls-3{clip-path:url(#clip-path);}.cls-4{fill:#333;}</style><clipPath id="clip-path"><path class="cls-1" d="M622.25,944.5c-17.81,0-37-5.22-57.32-10.74C543.64,928,521.63,922,500,922s-43.64,6-64.93,11.76c-20.32,5.52-39.51,10.74-57.32,10.74a67.69,67.69,0,0,1-21.17-3.09c-24.24-7.87-42.05-30.22-60.91-53.87-13.34-16.73-27.13-34-43.71-46.09-16.84-12.25-37.74-20.15-58-27.79C165.89,803,139.33,793,124.59,772.75c-14.54-20-15.92-48.2-17.38-78.07-1.06-21.72-2.15-44.17-8.67-64.23-6.2-19.1-18.24-37.31-29.87-54.91C51.87,550.13,36,526.12,36,500s15.87-50.13,32.67-75.54c11.63-17.6,23.67-35.81,29.87-54.91,6.52-20.06,7.61-42.51,8.67-64.22,1.46-29.88,2.84-58.1,17.38-78.08C139.33,207,165.89,197,194,186.34c20.21-7.64,41.11-15.53,58-27.79,16.58-12.07,30.37-29.36,43.71-46.09,18.86-23.65,36.67-46,60.91-53.87a67.69,67.69,0,0,1,21.17-3.09c17.81,0,37,5.22,57.32,10.74C456.36,72,478.37,78,500,78s43.64-6,64.93-11.76c20.32-5.52,39.51-10.74,57.32-10.74a67.69,67.69,0,0,1,21.17,3.09c24.24,7.87,42.05,30.22,60.91,53.87,13.34,16.73,27.13,34,43.71,46.09,16.84,12.26,37.74,20.15,58,27.79C834.11,197,860.67,207,875.41,227.25c14.54,20,15.92,48.2,17.38,78.08,1.06,21.71,2.16,44.16,8.67,64.22,6.2,19.1,18.24,37.31,29.87,54.91C948.13,449.87,964,473.88,964,500s-15.87,50.13-32.67,75.54c-11.63,17.6-23.67,35.81-29.87,54.91-6.51,20.06-7.61,42.51-8.67,64.22-1.46,29.88-2.84,58.1-17.38,78.08C860.67,793,834.11,803,806,813.66c-20.21,7.64-41.11,15.54-58,27.79-16.58,12.07-30.37,29.36-43.71,46.09-18.86,23.65-36.67,46-60.91,53.87A67.69,67.69,0,0,1,622.25,944.5Z"/></clipPath></defs><title>medalha01</title><path class="cls-2" d="M622.25,944.5c-17.81,0-37-5.22-57.32-10.74C543.64,928,521.63,922,500,922s-43.64,6-64.93,11.76c-20.32,5.52-39.51,10.74-57.32,10.74a67.69,67.69,0,0,1-21.17-3.09c-24.24-7.87-42.05-30.22-60.91-53.87-13.34-16.73-27.13-34-43.71-46.09-16.84-12.25-37.74-20.15-58-27.79C165.89,803,139.33,793,124.59,772.75c-14.54-20-15.92-48.2-17.38-78.07-1.06-21.72-2.15-44.17-8.67-64.23-6.2-19.1-18.24-37.31-29.87-54.91C51.87,550.13,36,526.12,36,500s15.87-50.13,32.67-75.54c11.63-17.6,23.67-35.81,29.87-54.91,6.52-20.06,7.61-42.51,8.67-64.22,1.46-29.88,2.84-58.1,17.38-78.08C139.33,207,165.89,197,194,186.34c20.21-7.64,41.11-15.53,58-27.79,16.58-12.07,30.37-29.36,43.71-46.09,18.86-23.65,36.67-46,60.91-53.87a67.69,67.69,0,0,1,21.17-3.09c17.81,0,37,5.22,57.32,10.74C456.36,72,478.37,78,500,78s43.64-6,64.93-11.76c20.32-5.52,39.51-10.74,57.32-10.74a67.69,67.69,0,0,1,21.17,3.09c24.24,7.87,42.05,30.22,60.91,53.87,13.34,16.73,27.13,34,43.71,46.09,16.84,12.26,37.74,20.15,58,27.79C834.11,197,860.67,207,875.41,227.25c14.54,20,15.92,48.2,17.38,78.08,1.06,21.71,2.16,44.16,8.67,64.22,6.2,19.1,18.24,37.31,29.87,54.91C948.13,449.87,964,473.88,964,500s-15.87,50.13-32.67,75.54c-11.63,17.6-23.67,35.81-29.87,54.91-6.51,20.06-7.61,42.51-8.67,64.22-1.46,29.88-2.84,58.1-17.38,78.08C860.67,793,834.11,803,806,813.66c-20.21,7.64-41.11,15.54-58,27.79-16.58,12.07-30.37,29.36-43.71,46.09-18.86,23.65-36.67,46-60.91,53.87A67.69,67.69,0,0,1,622.25,944.5Z"/><g class="cls-3"><path class="cls-4" d="M786.6,885.37C754.47,758,665.61,735,644.46,731.24a72.35,72.35,0,0,0-9.5-23.06c46.17-48.5,53.4-104.81,54.53-121.79,42.57-12.89,33.2-46.73,29.08-68.64-5.87-31.12,46.3-54.26,37-170.28-9-112-59.32-203-62.82-209.18a39.83,39.83,0,1,0-42.13,2.57c-1.84,14.69-13.75,44-75.64,64.76-73.12,24.48-127.37,58-141.7,67.32a105.6,105.6,0,0,0-17.4,5c-37.56,14.58-55.2,51.67-60.47,65-151,96.75-92.09,233.84-92.09,233.84s-60.59-9-64.85,5.94c0,0,67.12,248,309.56,192.94A308.07,308.07,0,0,0,555.34,761c1,1.34,2.22,2.93,3.67,4.79a173.53,173.53,0,0,0-26.67,51.59c-15.08-4.93-102-29.47-162.62,36.45,0,0-66.67,65.65-17.73,152.22-24.69-6.34-52.89-20.87-71.77-53.07-2.08-3.56-7.28-3.64-9.8-.16-12.66,17.48,9.87,66.49,16.58,76.07,7.59,10.83,27.83,34.34,64.52,35.55,0,0,18.39,3.27,34.25-14.75q7.71,7.79,16.84,15.7a185.83,185.83,0,0,0,29.84,65.07c-30.7-6-64.49-20.84-93.24-53.49a8,8,0,0,0-13.27,2c-12,26.61,32.7,88.26,44.55,99.8,13.4,13,47.57,40.51,97.45,34,0,0,26.09.35,42.23-28.24,55.73,12.8,141.66,3,187.37-68.25a153.76,153.76,0,0,0,19.13-41.81C750.45,1059.81,817.68,1008.56,786.6,885.37ZM362.29,342c20.13-51.17,61.53-56.46,67.43-57.18,93.64-11.36,169.94,68.51,169.94,68.51-21.15-51.07-88.13-85.15-146.24-82.78,98.1-53.94,90-45,131.8-60.55,50.67-20.24,66.14-49.81,70.86-66.66a40,40,0,0,0,26.71.14c38.71,64.66,55.89,115.1,62.17,206,5.47,79-34,128-38.45,162.71-1.55,12.25,14.09,31.33,7.62,48.8-4.84,13.13-29.7,20-34.4,12.42-35.09-57-127.45-181.07-315.24-227.18A3.16,3.16,0,0,1,362.29,342ZM505.08,768.38c-82.15,15.47-143.26-2.91-188-33.26-2-1.34-3.94-2.71-5.87-4.11s-3.82-2.81-5.68-4.23Q300,722.46,294.76,718c-1.73-1.51-3.44-3-5.11-4.58s-3.32-3.08-4.94-4.64-3.19-3.15-4.74-4.72c-53.63-54.68-72.12-121.48-72.12-121.48,4.26-2.37,35.74-2,68.08,2.9-16.49-43.81-17.39-81.28-10.08-112.6.65-2.69,1.33-5.35,2.09-7.94,1.49-5.21,3.22-10.24,5.13-15.09.94-2.41,1.93-4.8,3-7.14.52-1.15,1.06-2.31,1.6-3.46,1.09-2.29,2.22-4.51,3.37-6.72.58-1.09,1.16-2.18,1.77-3.25,2.38-4.3,4.91-8.43,7.53-12.38a203.85,203.85,0,0,1,23.77-29.34c1.85-1.89,3.69-3.71,5.5-5.45,1.39-1.34,2.79-2.63,4.17-3.87,3.46-3.16,6.82-6,10-8.61,1.7-1.38,3.37-2.67,4.95-3.9.82-.62,1.62-1.21,2.39-1.8,1.14-.85,2.26-1.65,3.34-2.42,0,0,0,0,0,0,1.06-.76,2.1-1.47,3.1-2.15,0,0,0,0,0,0l4.17-2.75a24.09,24.09,0,0,1,3.66-1.91,21.62,21.62,0,0,1,14.29-.54c2.35.74,4.93,1.55,7.67,2.46,1.84.61,3.75,1.25,5.74,2l3.07,1.06c2.08.74,4.23,1.51,6.47,2.34s4.54,1.69,6.89,2.6,4.84,1.86,7.34,2.89q9.43,3.76,20,8.46,4.21,1.89,8.61,3.92c1.48.68,2.93,1.39,4.44,2.09q4.44,2.1,9.07,4.39,6.9,3.45,14.08,7.23c1.61.85,3.22,1.7,4.83,2.57q7.29,4,14.8,8.28l5,2.93q5.06,3,10.19,6.15c10.26,6.33,20.76,13.23,31.34,20.72q10.61,7.5,21.32,15.82c3.56,2.77,7.14,5.62,10.7,8.53s7.15,5.92,10.72,9,7.14,6.18,10.69,9.39a553.49,553.49,0,0,1,67.19,72.41q5,6.35,9.73,12.95c1.61,2.2,3.21,4.42,4.78,6.68a67.72,67.72,0,0,1,12.26,35.4c.09,1.48.12,3,.11,4.47a70.39,70.39,0,0,1-.7,9A68.09,68.09,0,0,1,672.79,631c-.95,2.63-2,5.3-3.09,8-.72,1.78-1.49,3.54-2.3,5.34-1.22,2.68-2.5,5.37-3.86,8.06-.91,1.79-1.85,3.58-2.84,5.36s-2,3.59-3,5.38-2.12,3.56-3.26,5.35-2.27,3.56-3.46,5.33C622.44,716.31,573.9,755.41,505.08,768.38Zm123.65-53.94c17.74,20.92,10.12,44.16-7.7,56.8-31.55,22.38-51.56-3.27-57.88-13.53C590.49,745.64,611.93,730.61,628.73,714.44ZM392.49,1040.36a84.87,84.87,0,0,0,6.23-13.07,144.25,144.25,0,0,0,.73,19.46C397.52,1045.09,395.14,1043,392.49,1040.36Zm7.65-29.35a4.71,4.71,0,0,0-2.61-.59,152,152,0,0,1-30.26-1.33c-20-32.12-33.9-80.7,1.63-138.73,6.53-10.67,15.85-19,25.6-26.86,36.13-29,97.46-34.8,135.62-18.57-7.29,27.23-5.81,48.51-5.1,54.69-33.64,6.68-72.44,24.92-101.11,69.56C410.54,970,403.08,990.85,400.14,1011Zm287.26,98.7c-34.51,53.78-118.86,75.46-173.07,66.13,4.2-10.25,7.22-23.33,8.06-40.06a6.65,6.65,0,0,0-8.1-6.85,206.12,206.12,0,0,1-66.83,3.81c-39.26-46.09-55-112.28-13.39-177.06,55-85.74,137.63-70.3,153.8-66.31-12.94,43.51-23,99.38,5.6,111.12,16.25,6.11,38.25-23.42,58.2-83.63C725.3,983.76,718.65,1061.06,687.4,1109.71Zm32.34-49.24c12.67-76.57-43.2-135.72-65.51-151.53,5.06-16.09,10-34.11,14.57-54.09a1.55,1.55,0,0,0-1.9-1.83c-8.91,2.39-10.57,6.44-10.76,7,0,0,0,0,0,.1-.65,2.86-30.36,131.39-59.34,132.36-27.57.93,2.43-123,15.11-143.48a4.59,4.59,0,0,0-.36-5.34,31,31,0,0,1-2.28-3.13,2.51,2.51,0,0,0-4.47.36c-2.9,7.22-8.26,21.13-13.63,37.9a186.91,186.91,0,0,0-56.09-.82c-2-75,31.84-103.58,31.84-103.58,12.11,11.1,30.9,19.53,55.56,4,16.65-11.08,22.46-23.87,23-35.83,17.73,1.13,98.46,16.28,131.73,144.78C810.26,1015.17,738.15,1047.54,719.74,1060.47Z"/><ellipse class="cls-4" cx="349.4" cy="720.94" rx="10.04" ry="21.81" transform="translate(-449.87 666.11) rotate(-60.22)"/><path class="cls-4" d="M364.85,387.61c30.39,26,40.63,50.65,40.92,71.86a39.93,39.93,0,0,0-17.6-8.46c-30.13-6.1-62.9,23.47-73.2,66s5.76,82,35.88,88.13c28.31,5.73,58.95-20,71.1-58.5h0l.05-.17c.76-2.42,1.45-4.87,2.05-7.38a112.15,112.15,0,0,0,2.24-12.06C432.9,489.21,437.91,407.9,364.85,387.61Z"/></g><path class="cls-4" d="M622.26,65.5a57.89,57.89,0,0,1,18.07,2.6c21.38,7,38.29,28.15,56.18,50.6,13.75,17.24,28,35.08,45.64,47.94,17.93,13,39.48,21.18,60.31,29.05,26.68,10.08,51.88,19.6,64.86,37.44,12.79,17.57,14.1,44.34,15.48,72.68,1.09,22.37,2.22,45.5,9.15,66.83,6.62,20.39,19,39.18,31,57.34,16,24.12,31,46.9,31,70s-15.06,45.9-31,70c-12,18.16-24.42,37-31,57.34-6.93,21.33-8.06,44.46-9.15,66.83-1.38,28.34-2.69,55.11-15.48,72.68-13,17.84-38.18,27.36-64.86,37.44-20.83,7.87-42.38,16-60.31,29.06-17.67,12.86-31.89,30.69-45.64,47.93-17.89,22.45-34.8,43.65-56.18,50.6a57.91,57.91,0,0,1-18.08,2.6c-16.48,0-35-5-54.7-10.39C545.63,918.16,523,912,500,912s-45.63,6.16-67.55,12.11c-19.66,5.34-38.22,10.39-54.7,10.39a57.91,57.91,0,0,1-18.08-2.6c-21.38-6.95-38.29-28.15-56.18-50.6-13.75-17.24-28-35.08-45.64-47.94-17.93-13-39.48-21.18-60.31-29.05-26.68-10.08-51.88-19.6-64.86-37.44-12.79-17.57-14.1-44.34-15.48-72.68-1.09-22.37-2.22-45.49-9.15-66.83C101.43,607,89,588.19,77,570c-16-24.12-31-46.9-31-70s15.06-45.9,31-70c12-18.16,24.42-37,31-57.34,6.93-21.33,8.06-44.46,9.15-66.83,1.38-28.34,2.69-55.11,15.48-72.68,13-17.84,38.18-27.36,64.86-37.44,20.83-7.87,42.38-16,60.31-29.06,17.67-12.86,31.89-30.69,45.64-47.93,17.89-22.45,34.8-43.65,56.18-50.6a57.91,57.91,0,0,1,18.08-2.6c16.48,0,35,5,54.7,10.39C454.37,81.84,477,88,500,88s45.63-6.16,67.55-12.11c19.66-5.34,38.23-10.39,54.7-10.39h0m0-20C583.58,45.5,540.21,68,500,68S416.42,45.5,377.75,45.5a77.92,77.92,0,0,0-24.26,3.58c-45.7,14.84-69.37,73.7-107.41,101.38-38.42,28-101.61,32.48-129.57,70.9-27.69,38-12.64,99.4-27.48,145.1C74.71,410.56,26,451.13,26,500s48.71,89.44,63,133.54c14.84,45.7-.21,107.06,27.48,145.1,28,38.42,91.15,42.93,129.57,70.9,38,27.68,61.71,86.54,107.41,101.38a78,78,0,0,0,24.26,3.58c38.67,0,82-22.5,122.25-22.5s83.58,22.5,122.25,22.5a77.92,77.92,0,0,0,24.26-3.58c45.7-14.84,69.37-73.7,107.41-101.38,38.42-28,101.61-32.48,129.57-70.9,27.69-38,12.64-99.4,27.48-145.1,14.32-44.1,63-84.67,63-133.54s-48.71-89.44-63-133.54c-14.84-45.7.21-107.06-27.48-145.1-28-38.42-91.15-42.93-129.57-70.9-38-27.68-61.71-86.54-107.41-101.38a78,78,0,0,0-24.26-3.58Z"/></svg>