<svg id="Layer_2" data-name="Layer 2" xmlns="http://www.w3.org/2000/svg" viewBox="0 0 1000 1000"><defs><style>.cls-1{fill:#8a89ff;}.cls-2{fill:none;stroke:#333;stroke-miterlimit:10;stroke-width:20px;}.cls-3{fill:#333;}</style></defs><title>medalha01</title><polygon class="cls-1" points="976.25 500 884.45 587.79 929.17 706.7 808.27 745.8 796.96 872.35 671.07 855.31 605.97 964.41 500 894.25 394.04 964.41 328.93 855.31 203.04 872.35 191.73 745.8 70.83 706.7 115.55 587.79 23.75 500 115.55 412.21 70.83 293.3 191.73 254.2 203.04 127.65 328.93 144.69 394.03 35.59 500 105.75 605.97 35.59 671.07 144.69 796.96 127.65 808.27 254.2 929.17 293.3 884.45 412.21 976.25 500"/><polygon class="cls-2" points="976.25 500 884.45 587.79 929.17 706.7 808.27 745.8 796.96 872.35 671.07 855.31 605.97 964.41 500 894.25 394.04 964.41 328.93 855.31 203.04 872.35 191.73 745.8 70.83 706.7 115.55 587.79 23.75 500 115.55 412.21 70.83 293.3 191.73 254.2 203.04 127.65 328.93 144.69 394.03 35.59 500 105.75 605.97 35.59 671.07 144.69 796.96 127.65 808.27 254.2 929.17 293.3 884.45 412.21 976.25 500"/><path class="cls-3" d="M695.47,676.08c19.06-9.87,23.83-27.37,25.11-35,1.13-6.75.69-38.28-10.4-44.32a3.43,3.43,0,0,0-5.13,2.55c-1.86,21.76-13.1,36.53-24.54,46.09,4-58-47.66-75.89-47.66-75.89-48.57-19.54-88.28,15.29-95,21.69a101.52,101.52,0,0,0-27.06-20.51c.27-1.23.52-2.39.74-3.45a180.86,180.86,0,0,0,28.66-4.17C682,531.12,655,383.32,655,383.32c-6-6.79-35.72,13.19-35.72,13.19s-3.43-87.17-107.47-100.24c-6.12-5.69-24.77-20.83-48.26-19.07a63.09,63.09,0,0,0-10.45,1.72,384.09,384.09,0,0,0-91.74.14c-37.88,4.64-51.55-7.85-56.22-15.14a23.29,23.29,0,1,0-22.88,9.25c-.29,4.14-4,64.86,19.5,126.21C326.05,463,359.41,462,364.15,479.94c3.33,12.6,6.91,32.82,32.62,28.91a117.85,117.85,0,0,0,60.05,50.78A37.48,37.48,0,0,0,457,574c-10.23,7.28-51.33,41.81-36.22,117.13,14.59,72.84,63,83,84.48,82.17a90,90,0,0,0,20.62,17.25c42,26.07,89.88,9.64,116.07-11.14,15.72,11,29.4,4.27,29.4,4.27,28-9.1,39.1-32.19,42.88-42.45,3.36-9.07,11.43-52.86-1.6-63.89a4.67,4.67,0,0,0-7.51,2.3,95.37,95.37,0,0,1-35.74,51.69,108.57,108.57,0,0,0-.64-41.84c1.9-4.32,3.53-8.5,4.94-12.54C686.59,682.43,695.47,676.08,695.47,676.08ZM405.05,498.56c0,.28,0,.57,0,.85C405,499.13,405,498.84,405.05,498.56ZM610.76,380.63a2.17,2.17,0,0,1,.07.24A2.17,2.17,0,0,0,610.76,380.63Zm2.84,13.55.06.42Zm.65,4.76c0,.14,0,.28,0,.43C614.29,399.22,614.27,399.08,614.25,398.94Zm-7.47-30.49c0,.06.05.11.07.17S606.8,368.51,606.78,368.45Zm-5-10.91.11.2Zm1.39,169.1c-.9.77-1.82,1.54-2.75,2.3C601.35,528.18,602.27,527.41,603.17,526.64Zm3.51-3.12c-.8.74-1.62,1.48-2.46,2.21C605.06,525,605.88,524.26,606.68,523.52Zm-141,33.61,1.25.4-1.2-.37Zm26.43,5.39c-.9-.09-1.79-.18-2.68-.29C490.34,562.34,491.23,562.43,492.13,562.52Zm-.92-240.88c.82-.89,1.63-1.76,2.42-2.59Zm5.94,241.28c-1.23-.08-2.46-.17-3.68-.27C494.69,562.75,495.92,562.84,497.15,562.92ZM468.44,558c.88.26,1.78.51,2.67.75C470.22,558.48,469.32,558.23,468.44,558Zm4.13,1.13c.94.24,1.88.47,2.83.69C474.45,559.57,473.51,559.34,472.57,559.1Zm4.27,1,2.36.5Zm3.78.78c1.06.2,2.12.38,3.19.56C482.74,561.27,481.68,561.09,480.62,560.89Zm4.13.71c1.11.17,2.22.33,3.35.47C487,561.93,485.86,561.77,484.75,561.6Zm12.85,1.34q1.89.1,3.81.15Q499.49,563,497.6,562.94Zm5.1.17c1,0,2,0,2.95,0C504.66,563.13,503.68,563.13,502.7,563.11Zm26.92-2.31q-4.38.81-8.67,1.34Q525.24,561.62,529.62,560.8Zm53.14-19.71c-1.36.8-2.74,1.58-4.16,2.35C580,542.67,581.4,541.89,582.76,541.09Zm-4.46,2.5q-2,1.08-4.07,2.11Q576.3,544.67,578.3,543.59ZM573,546.28c-1.3.64-2.61,1.26-3.95,1.87C570.43,547.54,571.74,546.92,573,546.28Zm-4.61,2.18c-1.54.69-3.12,1.37-4.72,2C565.31,549.83,566.89,549.15,568.43,548.46Zm23.27-13q-1.85,1.27-3.76,2.49Q589.86,536.72,591.7,535.44Zm-4.62,3c-1.06.66-2.13,1.32-3.22,2C585,539.8,586,539.14,587.08,538.48ZM507,305.75c-3.38,3.12-7.65,7.27-12.5,12.36.8-.85,1.6-1.67,2.36-2.47,1-1,1.92-1.95,2.83-2.86l1.35-1.33c.88-.88,1.72-1.7,2.54-2.48,1.22-1.17,2.38-2.25,3.43-3.23a11.41,11.41,0,0,1,1-.83Q507.54,305.3,507,305.75Zm1.18-1c.3-.21.6-.41.91-.6C508.82,304.38,508.52,304.58,508.22,304.79Zm1.15-.74c.31-.17.64-.34,1-.49C510,303.71,509.68,303.87,509.37,304.05Zm1.14-.58c.39-.17.78-.32,1.18-.45C511.29,303.15,510.9,303.3,510.51,303.47Zm1.42-.52c.32-.09.63-.18,1-.25C512.56,302.77,512.25,302.86,511.93,303Zm1.34-.33.93-.14Zm-23.5,20.6c-.52.56-1,1.13-1.56,1.71C488.74,324.35,489.25,323.78,489.77,323.22ZM487,326.3c-.87,1-1.74,2-2.62,3C485.25,328.26,486.12,327.27,487,326.3Zm-3.47,4c-.84,1-1.7,2-2.56,3l1.38-1.65Zm-3.29,3.87c-3.3,3.95-6.72,8.21-10.2,12.79,1.09-1.44,2.18-2.86,3.26-4.24,1.24-1.58,2.47-3.12,3.68-4.6.62-.75,1.21-1.49,1.82-2.22Zm-11.37,14.34q-3.24,4.3-6.53,9,1.73-2.44,3.45-4.82l1.89-2.57ZM405.57,493.34a.13.13,0,0,0,0-.06c.26-1.58.55-3.16.85-4.73.57-3.12,1.19-6.22,1.87-9.28.16-.78.35-1.54.52-2.31-1.19,5.34-2.29,10.77-3.24,16.32C405.58,493.3,405.57,493.32,405.57,493.34Zm-.26,11.35c0-.26-.05-.52-.08-.78C405.26,504.17,405.28,504.43,405.31,504.69Zm-.22-2.62c0-.28,0-.56,0-.85C405.06,501.51,405.07,501.79,405.09,502.07Zm.08-5.41c0-.25,0-.5.06-.75C405.2,496.16,405.19,496.41,405.17,496.66Zm20.36-72.52c.56-1.34,1.14-2.65,1.71-4-1.58,3.68-3.13,7.43-4.61,11.27C423.58,429,424.54,426.54,425.53,424.14Zm-3.69,9.39q-1,2.66-2,5.34Q420.85,436.18,421.84,433.53Zm-2.9,8c-.6,1.71-1.18,3.44-1.75,5.17C417.76,445,418.34,443.24,418.94,441.53Zm-2.62,7.81c-.66,2.05-1.29,4.12-1.91,6.2C415,453.46,415.66,451.39,416.32,449.34Zm-2.43,7.9c-.76,2.61-1.49,5.24-2.19,7.91C412.4,462.48,413.13,459.85,413.89,457.24ZM411,467.9q-.69,2.66-1.32,5.34C410.1,471.45,410.55,469.67,411,467.9Zm27-70.5q1.69-3.27,3.44-6.45Q439.72,394.13,438,397.4Zm3.88,149.49c-.73-.41-1.45-.82-2.16-1.24C440.45,546.07,441.17,546.48,441.9,546.89Zm12.41-177.57q1.9-3,3.83-5.81l1.91-2.8c.47-.69.94-1.35,1.41-2q-3.57,5.12-7.15,10.64Zm0,0c-1.16,1.8-2.32,3.64-3.47,5.5C452,373,453.14,371.14,454.3,369.34ZM450,376.22q-1.37,2.23-2.73,4.54Q448.62,378.45,450,376.22Zm-3.57,6q-1.67,2.83-3.32,5.77C444.19,386,445.29,384.09,446.41,382.19Zm-10.84,20q-1.63,3.27-3.23,6.65Q433.93,405.44,435.57,402.16ZM628.25,633.47a97,97,0,0,1,18,14.24,96.52,96.52,0,0,0-18-14.23c-26.36-16.35-51.43-16.21-70.86-11.27h0C576.82,617.27,601.89,617.13,628.25,633.47Zm28.5-38.84c.33.38.65.76,1,1.15C657.4,595.39,657.08,595,656.75,594.63ZM554.59,615.52c1,2.18,1.79,4,2.29,5.3C556.38,619.5,555.63,617.7,554.59,615.52Zm-51.45,7a.8.8,0,0,0-.05.21c0,.12,0,.25-.06.36,0-.11,0-.24.05-.36A1.66,1.66,0,0,1,503.14,622.55Zm-.54,3.17a2.69,2.69,0,0,0,.81,1.84A2.69,2.69,0,0,1,502.6,625.72Zm48.16,68.61c0-.27,0-.56-.07-.85C550.72,693.77,550.75,694.06,550.76,694.33Zm-1.48-6.46.09.25Zm.27.77.21.63Zm.26.81a21,21,0,0,1,.88,4A21,21,0,0,0,549.81,689.45Zm1,4.95c0,.27,0,.53,0,.79C550.76,694.93,550.76,694.67,550.76,694.4Zm-.08,1.51v0Zm-34.12-63.43c1.81,1.84,3.73,3.82,5.71,5.92l.76-.53-.76.53C520.29,636.3,518.37,634.32,516.56,632.48Zm29.36-20c2,3.47,3.9,7.25,5.75,11.41-1.28.41-2.51.83-3.73,1.27,1.22-.44,2.45-.86,3.73-1.27C549.82,619.69,547.89,615.91,545.92,612.44Zm-37.75-33.81c.22-.48.43-1,.62-1.44h0C508.6,577.67,508.39,578.15,508.17,578.63Zm-27.71,14.64a30.63,30.63,0,0,0,13.08-1,30.63,30.63,0,0,1-13.08,1c-8.84-1.26-14.58-4.65-18.27-8.93C465.88,588.62,471.62,592,480.46,593.27Zm1.72,50.92c-1.08-.48-3.06-.92-6.37-.3a.87.87,0,0,0-.68.57.87.87,0,0,1,.67-.57C479.12,643.27,481.11,643.71,482.18,644.19Zm22.89,25.88c-3.23-3.45-6.28-6.85-9-10C498.79,663.22,501.84,666.62,505.07,670.07Zm2.51,2.65-.1-.1Zm-7.67,1c-.49,1.2-1,2.4-1.4,3.6.45-1.2.91-2.4,1.4-3.6Zm51.77,29.48c12.15-13.4-7.23-40.35-25-60.05h0c17.78,19.71,37.16,46.65,25,60.05-2,2.06-4.91,2.74-8.67,2.07C546.77,706,549.7,705.29,551.68,703.23Zm-23.32-61.39a84.85,84.85,0,0,1,22.55-12.09A84.85,84.85,0,0,0,528.36,641.84Zm139.43,31.85c-.1.25-.19.5-.28.75C667.6,674.19,667.69,673.94,667.79,673.69Zm-.37,1c-.1.26-.19.51-.29.75C667.23,675.18,667.32,674.93,667.42,674.67Zm-.36.94c-.11.27-.21.54-.32.8C666.85,676.15,667,675.88,667.06,675.61Zm-.35.87c-.35.86-.68,1.65-1,2.33h0C666,678.12,666.36,677.34,666.71,676.48Zm6.52-25.65c0-.4.09-.8.13-1.21,0,.4-.09.81-.13,1.21Zm.54-8.81v0Zm-.38,7.2.12-1.3Zm.15-1.82c0-.4.06-.79.09-1.2C673.6,646.61,673.57,647,673.54,647.4Zm.12-1.79c0-.38,0-.77.05-1.15C673.7,644.84,673.68,645.23,673.66,645.61Zm.07-1.78,0-1.14ZM658.3,596.49l.91,1.16Zm1.46,1.87.86,1.18Zm1.37,1.89.82,1.2Zm1.29,1.89q.41.61.78,1.23Q662.83,602.76,662.42,602.14Zm1.2,1.91c.26.42.51.85.76,1.27C664.13,604.9,663.88,604.47,663.62,604.05Zm1.13,1.9c.26.46.5.91.74,1.36C665.25,606.86,665,606.41,664.75,606Zm1,1.92c.26.49.5,1,.75,1.48C666.3,608.85,666.06,608.36,665.8,607.87Zm1,1.92c.28.58.56,1.17.82,1.75C667.33,611,667.05,610.37,666.77,609.79Zm.9,1.93c.59,1.3,1.12,2.61,1.61,3.92C668.79,614.33,668.26,613,667.67,611.72Zm1.63,4c.23.63.46,1.26.67,1.89C669.76,616.94,669.53,616.31,669.3,615.68Zm.81,2.31c.17.5.33,1,.49,1.5C670.44,619,670.28,618.49,670.11,618Zm.66,2.08.39,1.34Zm.56,2,.33,1.27Zm.49,2c.1.4.19.81.28,1.22C672,624.84,671.92,624.43,671.82,624Zm.43,1.93.24,1.19Zm.37,1.93c.07.39.13.77.2,1.16C672.75,628.66,672.69,628.28,672.62,627.89Zm.31,1.91c.06.38.11.76.16,1.14C673,630.56,673,630.18,672.93,629.8Zm.26,1.89c0,.38.09.75.13,1.13C673.28,632.44,673.24,632.07,673.19,631.69Zm.21,1.88c0,.37.07.74.1,1.11C673.47,634.31,673.44,633.94,673.4,633.57Zm.16,1.86c0,.37.05.74.07,1.11C673.61,636.17,673.59,635.8,673.56,635.43Zm.11,1.84c0,.37,0,.74.05,1.1C673.71,638,673.69,637.64,673.67,637.27Zm.07,1.83c0,.37,0,.74,0,1.1C673.76,639.84,673.75,639.47,673.74,639.1Zm-17.6-45.17c-.34-.39-.68-.77-1-1.15C655.46,593.16,655.8,593.54,656.14,593.93Zm-1.68-1.84c-.35-.39-.72-.77-1.09-1.14C653.74,591.32,654.11,591.7,654.46,592.09Zm-1.76-1.82c-.38-.39-.77-.77-1.17-1.15C651.93,589.5,652.32,589.88,652.7,590.27ZM643.08,582c.55.41,1.09.82,1.62,1.24C644.17,582.78,643.63,582.37,643.08,582Zm2.3,1.78c.5.4,1,.79,1.47,1.19C646.37,584.53,645.88,584.14,645.38,583.74Zm2.17,1.78,1.35,1.17Zm2,1.79c.43.39.85.77,1.26,1.16C650.44,588.08,650,587.7,649.59,587.31Zm-12-9.16-.4-.25.21.12Zm4.81,3.34c-.6-.44-1.21-.88-1.83-1.31C641.24,580.61,641.85,581.05,642.45,581.49Zm-2.35-1.69-2.2-1.48Zm-35.22-11.08a94.44,94.44,0,0,0-45.68,11.65C572.69,572.82,589.35,568.21,604.88,568.72ZM558.3,580.87l-.73.43Zm-10.54,7.22,0,0ZM546,589.57l-.34.31Zm-1.75,1.6-.6.59Zm-1.72,1.7-1,1Zm-30.15-30c1-.06,1.91-.11,2.87-.19-1,.08-1.92.14-2.87.19Zm7.29-.62c-1.06.12-2.11.23-3.16.32C517.58,562.51,518.63,562.4,519.69,562.28Zm20.21-3.8c-1.49.4-3,.75-4.45,1.1,1.48-.35,3-.7,4.45-1.1,1.88-.5,3.72-1,5.54-1.56C543.62,557.46,541.79,558,539.9,558.48Zm-9,2.07q1.65-.33,3.3-.69Q532.53,560.22,530.88,560.55ZM562.54,551c-1.32.53-2.65,1-4,1.56C559.89,552,561.22,551.5,562.54,551Zm-5.16,2q-2.5.93-5.1,1.8Q554.88,553.9,557.38,553Zm-6,2.1c-1.47.49-3,1-4.48,1.42C548.39,556,549.88,555.56,551.35,555.07Zm56-32.19c1-.9,1.91-1.81,2.84-2.73C609.29,521.07,608.35,522,607.38,522.88ZM592.6,534.82c1-.68,1.91-1.36,2.84-2C594.51,533.46,593.56,534.14,592.6,534.82Zm3.87-2.81c1.15-.86,2.29-1.73,3.39-2.62C598.76,530.28,597.62,531.15,596.47,532Zm16.68-14.87c-.63.66-1.27,1.33-1.92,2C611.88,518.47,612.52,517.8,613.15,517.14Zm1-1c.84-.91,1.67-1.83,2.47-2.75C615.78,514.28,615,515.2,614.11,516.11Zm5-5.76c-.52.64-1.05,1.27-1.59,1.9C618.06,511.62,618.59,511,619.11,510.35Zm11.23-16.05c.24-.4.47-.79.69-1.19-.09.17-.18.34-.28.5S630.48,494.07,630.34,494.3Zm-10.18,14.76c.56-.7,1.11-1.42,1.66-2.13C621.27,507.64,620.72,508.36,620.16,509.06Zm3-3.88c.47-.63.93-1.26,1.38-1.9C624.06,503.92,623.6,504.55,623.13,505.18Zm2.42-3.4c.38-.54.74-1.09,1.11-1.63C626.29,500.69,625.93,501.24,625.55,501.78Zm2.44-3.67q.68-1,1.32-2.1Q628.67,497.06,628,498.11Zm4.52-7.61c.22-.4.44-.79.65-1.19l-.34.65Zm1.77-3.31c.31-.6.62-1.2.92-1.81-.16.31-.3.61-.45.92S634.43,486.9,634.28,487.19Zm3.52-7.35c.27-.61.54-1.22.8-1.83-.13.3-.25.61-.38.91Zm-1.56,3.38c.2-.41.4-.82.59-1.24C636.63,482.4,636.44,482.81,636.24,483.22Zm3.33-7.54c.13-.31.25-.62.37-.93l-.18.47C639.7,475.37,639.63,475.52,639.57,475.68Zm1.28-3.24c.24-.64.48-1.28.71-1.92-.12.34-.23.67-.36,1S641,472.14,640.85,472.44Zm1.39-3.83c.17-.47.33-.93.48-1.4-.07.21-.13.42-.21.64S642.33,468.35,642.24,468.61Zm1.36-4.08c.12-.38.25-.76.36-1.14C643.85,463.77,643.72,464.15,643.6,464.53Zm1.21-4c.09-.32.19-.64.28-1C645,459.92,644.9,460.24,644.81,460.56Zm1.11-4c.06-.24.13-.48.19-.72C646.05,456.06,646,456.3,645.92,456.54Zm1-4.15c0-.1,0-.2.08-.31C647,452.19,647,452.29,647,452.39ZM651,426.58v0Zm.25-3.34v0Zm.19-3.28v0ZM650,385.58c-2.43-.15-14.79,5.72-28.19,14.1,13.4-8.38,25.76-14.25,28.19-14.1Zm-58-43.05-.26-.33.07.08C591.84,342.36,591.9,342.45,592,342.53Zm8.12,12-.15-.27Zm-4-6.35-.22-.32Zm-2-2.74-.41-.55Zm-4-5,.35.42Zm-4.69-5.17-.06-.05ZM582.19,332l-.22-.21.2.19Zm-3.38-3-.22-.18.2.17Zm1.83,1.6-1.11-1Zm-7-5.68-.09-.07,0,0Zm-8.88-5.95-.13-.07.1.06Zm3.59,2.26-.14-.09Zm-23.18-11.63-.6-.23.22.08Zm17.23,8-.41-.23Zm-2.56-1.41-.25-.13Zm-5-2.54-.43-.2Zm-2.42-1.11-.4-.18Zm-5.06-2.12-.42-.17Zm-6.6-2.39-.31-.11.12,0Zm-14.13-3.83-.83-.17.54.11Zm-1.16-.24-1.17-.23.33.06Zm-3.22-.61-.51-.09.5.08A0,0,0,0,0,522.24,303.29Zm-2.19-.37-.44-.06.42.06Zm-4.79-.5c-.25,0-.51,0-.76,0l.23,0ZM407.92,514.79c.12.28.24.55.35.83l-.25-.57C408,515,408,514.88,407.92,514.79Zm-2.3-8.09c0,.19.05.38.09.56C405.67,507.08,405.65,506.89,405.62,506.7Zm1.4,5.65c.06.19.14.37.2.55C407.16,512.72,407.08,512.54,407,512.35Zm1.85,4.6c.18.38.37.75.56,1.12-.11-.21-.24-.42-.34-.63S409,517.11,408.87,517Zm2.38,4.31c.28.44.56.88.86,1.31l-.38-.54C411.56,521.78,411.42,521.51,411.25,521.26ZM410,519.17l.63,1.1Zm3.68,5.52a40,40,0,0,0,3.14,3.51c.75.74,1.51,1.47,2.29,2.2-.78-.73-1.55-1.46-2.3-2.2A39.85,39.85,0,0,1,413.69,524.69Zm-1.39-1.85c.39.55.8,1.1,1.22,1.64C413.1,523.94,412.69,523.39,412.3,522.84Zm7.14,7.85c.55.51,1.11,1,1.68,1.52-.22-.2-.45-.38-.66-.58S419.78,531,419.44,530.69Zm2.89,2.58,1.18,1-.49-.39Zm4.38,3.58c.66.51,1.33,1,2,1.52-.55-.41-1.11-.81-1.64-1.22Zm4.72,3.47c.85.6,1.72,1.19,2.6,1.77l-1.15-.75C432.38,541,431.91,540.66,431.43,540.32ZM457,554l1,.36h0Zm-13.78-6.45,1.71.91Zm3.07,1.62,2,1Zm3.84,1.86c.7.33,1.41.66,2.12,1C451.51,551.73,450.8,551.4,450.1,551.07Zm3.58,1.6,1.81.76Zm5.64,27.48h0c-9.08,5.06-47.86,33.38-33.08,109.56a154.63,154.63,0,0,0,7.57,26.81,154.76,154.76,0,0,1-7.57-26.8C411.46,613.52,450.25,585.21,459.32,580.15Zm40.81,186.52c-25.95-37.22-11.35-82.5-3.56-96.46q-1.77-1.9-3.59-3.92,1.81,2,3.59,3.92c-7.79,14-22.39,59.24,3.57,96.46Zm4.43-6.33c.34.51.69,1,1,1.52C505.25,761.36,504.9,760.85,504.56,760.34Zm7.51,9.6c.72.79,1.44,1.56,2.19,2.31C513.51,771.5,512.79,770.73,512.07,769.94Zm17.53,14.58a82.67,82.67,0,0,1-15.3-12.22,82.67,82.67,0,0,0,15.3,12.22c31.75,19.7,81.72,9.91,108-8.66h0C611.32,794.43,561.35,804.22,529.6,784.52Z"/></svg>