<svg id="Layer_1" data-name="Layer 1" xmlns="http://www.w3.org/2000/svg" viewBox="0 0 1000 1000"><defs><style>.cls-1{fill:#3cc;}.cls-2{fill:#4d4d4d;}.cls-3{fill:#fff;}</style></defs><title>payasoAbout</title><path class="cls-1" d="M500,990A490.14,490.14,0,0,1,309.27,48.5a490.13,490.13,0,0,1,381.46,903A487,487,0,0,1,500,990Z"/><path class="cls-2" d="M500,20A480.13,480.13,0,0,1,686.83,942.29,480.13,480.13,0,0,1,313.17,57.71,477,477,0,0,1,500,20m0-20C223.86,0,0,223.86,0,500s223.86,500,500,500,500-223.86,500-500S776.14,0,500,0Z"/><path class="cls-2" d="M364.63,745.38c-14.85-2.07-60.93-12.21-77.06-59.09a4.36,4.36,0,0,0-7.12-1.55c-11.8,10.88-2.57,49.9.91,57.87,3.94,9,15.24,29.11,41.81,35.38,0,0,25.33,10,44.06-27.67A3.4,3.4,0,0,0,364.63,745.38Z"/><path class="cls-3" d="M592.1,829.17c20.48-53.95-11.55-105.25-25.49-120,6-11,12.27-23.4,18.56-37.28a1.15,1.15,0,0,0-1.11-1.62c-6.84.43-8.65,3.14-8.87,3.5,0,0,0,0,0,.07-.9,2-41.42,91.29-62.69,87.75-20.23-3.37,19.83-89.27,32.09-102.35a3.43,3.43,0,0,0,.52-3.94,22.06,22.06,0,0,1-1.2-2.62,1.87,1.87,0,0,0-3.32-.39c-3.17,4.83-9.12,14.19-15.5,25.62A138.93,138.93,0,0,0,484.31,669c9.51-54.92,38.41-70.81,38.41-70.81,7.2,9.87,19.65,18.77,39.91,11,13.76-5.63,19.87-14.1,22-22.73C597.39,590,654,612.84,659.37,711.38,664.73,809.44,607.42,822.45,592.1,829.17Z"/><path class="cls-3" d="M561.31,860.3c-41.14,42.48-131.25,37.39-158.23,8.87-38.36-40.56-53.64-106.84-3.78-158.31,52.69-54.41,110.63-31,121.82-25.75-15.82,29.81-31.37,69-12.23,81.8,10.94,6.85,31.31-11.45,54.69-52.4C607.42,774.08,591.23,829.44,561.31,860.3Z"/><path class="cls-3" d="M488.5,629.66c-9.32,18.78-11.36,34.51-11.75,39.11-25.5-.07-56.45,7.53-83.9,35.85-20.57,21.25-30,44.66-32.16,67.52-12.59-16.17-54.24-80.47,12-141.38C405,607.47,458.72,609.26,488.5,629.66Z"/><path class="cls-3" d="M562.63,603.89c-32.25,14.33-41.2-21.5-41.2-21.5s40.37-1.86,53.36-24.37C587.78,577.94,578.76,596.72,562.63,603.89Z"/><path class="cls-2" d="M666.54,711.38c-4.71-97.55-66.09-127.4-81-133.2-.1-13.06-8.62-26.25-8.62-26.25s-18.62,28.6-63.65,28.6c0,0,2.1,4.64,4.93,10.27a128.91,128.91,0,0,0-27,33.69c-10.27-5.81-70-36.46-123.87,2.68,0,0-86.5,56.52-7.09,159,1.18,36.89,18.55,72.12,39.12,89.38,30.67,25.7,114.75,46.3,168.35-9a114,114,0,0,0,20.08-27.66C614.59,833.2,671.11,805.72,666.54,711.38ZM574.79,558c13,19.92,4,38.7-12.16,45.87-32.25,14.33-41.2-21.5-41.2-21.5S561.8,580.53,574.79,558ZM364.33,639.1c6.33-6.82,14.34-11.54,22.6-15.81,30.59-15.83,76.13-11,101.57,6.38-9.32,18.77-11.35,34.5-11.75,39.1-25.5-.07-56.45,7.53-83.9,35.85-20.56,21.25-30,44.66-32.16,67.52C348.67,756.7,310.18,697.43,364.33,639.1Zm197,221.2c-41.14,42.48-131.25,37.4-158.23,8.87-38.35-40.56-53.64-106.85-3.78-158.31,52.69-54.41,110.63-31,121.83-25.75-15.82,29.81-31.38,69-12.24,81.8,11,6.84,31.31-11.45,54.69-52.4C607.42,774.08,591.23,829.43,561.31,860.3Zm30.79-31.13c20.48-53.94-11.55-105.25-25.49-120,6.06-11,12.28-23.4,18.56-37.28a1.14,1.14,0,0,0-1.11-1.61c-6.85.42-8.66,3.13-8.87,3.49,0,0,0,0,0,.07-.89,2-41.42,91.29-62.68,87.74-20.22-3.36,19.84-89.27,32.09-102.34a3.44,3.44,0,0,0,.52-3.94,22.06,22.06,0,0,1-1.2-2.62,1.88,1.88,0,0,0-3.32-.4c-3.17,4.84-9.12,14.2-15.49,25.63A139.18,139.18,0,0,0,484.31,669c9.51-54.92,38.41-70.81,38.41-70.81,7.2,9.87,19.65,18.77,39.91,11,13.76-5.62,19.87-14.1,22-22.73C597.39,590,654,612.84,659.38,711.38,664.73,809.44,607.42,822.45,592.1,829.17Z"/><path class="cls-2" d="M432.32,848.89c-20.45.55-84.95-2.87-120-63.57a5.93,5.93,0,0,0-10-.51c-12.65,17.63,10.87,69.13,17.82,79.28,7.85,11.47,28.72,36.51,66,39.06,0,0,36.73,7.92,51-48.07A5,5,0,0,0,432.32,848.89Z"/><path class="cls-3" d="M624,462.76a50.58,50.58,0,0,1-3.06,46.54c-23,38.05-73,76.35-142.37,75.47-176.75-2.23-189.34-179.08-189.34-179.08,3.45-1.1,26.34,3.78,49.18,12.1C321.25,312.49,402.29,272,427.3,262.08a16,16,0,0,1,13.46.87C475.1,281.7,571.29,343.09,624,462.76Z"/><path class="cls-1" d="M663,427.63c-2.92,8.71,5.67,24.91-1.61,36.69-5.45,8.86-24.59,10.24-26.89,4-17.2-46.71-66.3-150.68-196.39-211.86a2.35,2.35,0,0,1-1-3.42c22.18-34.33,53.13-32.11,57.54-31.77,69.91,5.47,113.79,74.88,113.79,74.88-7.91-40.32-51.73-75-94.43-81.8,79.42-24.9,72.2-19.55,105-24.78,39.9-7.3,55.52-26.58,61.43-38.17a29.61,29.61,0,0,0,15,4.29,31.11,31.11,0,0,0,4.45-.26c18.71,52.8,23.82,92.08,15.06,159.27C707.27,373.12,671.31,403,663,427.63Z"/><ellipse class="cls-2" cx="372.06" cy="527.34" rx="7.46" ry="16.21" transform="translate(-269.83 460.24) rotate(-48.83)"/><ellipse class="cls-2" cx="415.03" cy="389.75" rx="59.01" ry="41.31" transform="translate(-120.93 581.86) rotate(-62.92)"/><path class="cls-2" d="M415.09,390.16s71-34.76,17.17-103.48C498.41,320.26,450.52,411,450.52,411Z"/><path class="cls-2" d="M707.85,153.13a29.63,29.63,0,1,0-31.09-4.32c-3.5,10.44-16.49,30.07-64.63,36.09C555.24,192,510.78,208.47,499,213.16a78.41,78.41,0,0,0-13.42,1.12c-29.52,5.11-47.81,29.55-53.61,38.47-124.23,48.34-101.45,156.9-101.45,156.9s-42.84-15.43-48.13-5.2c0,0,12.49,190.61,197.27,186.07,124-3,154.8-92,160-111.3,32.92-3.15,31.06-29.18,31.27-45.75.3-23.54,41.71-32.75,52-118.67C732.83,231.88,709.48,158.15,707.85,153.13ZM627.72,490.36c-.16,1.09-.35,2.18-.58,3.27a50.9,50.9,0,0,1-6.2,15.67c-1.08,1.78-2.21,3.57-3.42,5.35-.78,1.19-1.6,2.36-2.46,3.55q-1.92,2.67-4,5.31c-.93,1.17-1.88,2.34-2.86,3.49s-2,2.32-3,3.48-2.07,2.28-3.16,3.41-2.18,2.27-3.3,3.38c-27,26.79-68.14,48.16-120.2,47.5-62.14-.78-104-23.15-132.12-51.83-1.25-1.27-2.47-2.56-3.68-3.87s-2.36-2.61-3.51-3.91q-3.42-4-6.57-8c-1-1.36-2.06-2.71-3-4.09s-2-2.73-2.93-4.1-1.86-2.77-2.76-4.14c-31.05-47.73-34.72-99.12-34.72-99.12,3.45-1.11,26.34,3.77,49.19,12.1-5.59-34.34-.74-61.78,9.19-83.53.87-1.87,1.75-3.71,2.69-5.49,1.85-3.58,3.85-7,5.95-10.24,1-1.62,2.12-3.22,3.23-4.76.55-.77,1.11-1.53,1.68-2.29,1.13-1.51,2.27-3,3.44-4.4.58-.71,1.16-1.42,1.76-2.11,2.37-2.79,4.82-5.42,7.31-7.92a151.08,151.08,0,0,1,21.63-17.89c1.63-1.11,3.24-2.17,4.81-3.17,1.21-.77,2.42-1.51,3.61-2.21,3-1.79,5.85-3.38,8.57-4.8,1.44-.75,2.85-1.45,4.18-2.11l2-1c1-.46,1.9-.88,2.8-1.28h0c.88-.41,1.74-.77,2.57-1.12a0,0,0,0,0,0,0l3.44-1.39a17.63,17.63,0,0,1,2.95-.85,16,16,0,0,1,10.49,1.7c1.61.89,3.37,1.86,5.23,2.92q1.88,1.06,3.9,2.27l2.08,1.23c1.41.84,2.86,1.72,4.37,2.65s3.06,1.9,4.64,2.91,3.26,2.06,4.93,3.18c4.21,2.76,8.67,5.79,13.34,9.11q2.79,2,5.7,4.12c1,.71,1.93,1.44,2.92,2.17,2,1.46,3.94,3,6,4.53q4.51,3.53,9.2,7.34c1.05.86,2.1,1.71,3.14,2.58q4.74,4,9.57,8.21,1.6,1.41,3.23,2.87c2.16,1.94,4.34,3.94,6.51,6,6.56,6.13,13.19,12.69,19.8,19.71q6.63,7,13.22,14.66c2.19,2.54,4.38,5.15,6.55,7.79s4.34,5.36,6.49,8.11,4.3,5.55,6.41,8.41a411.09,411.09,0,0,1,38.34,62.64q2.67,5.35,5.19,10.87c.85,1.84,1.69,3.69,2.51,5.57A50.44,50.44,0,0,1,627.72,490.36ZM714.89,314.7C707.27,373.12,671.31,403,663,427.63c-2.92,8.71,5.67,24.91-1.61,36.69-5.45,8.86-24.59,10.24-26.89,4-17.2-46.71-66.3-150.68-196.39-211.86a2.35,2.35,0,0,1-1-3.42c22.18-34.33,53.13-32.11,57.54-31.77,69.91,5.47,113.79,74.88,113.79,74.88-7.91-40.32-51.73-75-94.43-81.8,79.42-24.9,72.2-19.55,105-24.78,39.9-7.3,55.52-26.58,61.43-38.17a29.61,29.61,0,0,0,15,4.29,31.11,31.11,0,0,0,4.45-.26C718.54,208.23,723.65,247.51,714.89,314.7Z"/></svg>