<svg xmlns="http://www.w3.org/2000/svg" viewBox="0 0 670 1000"><defs><style>.cls-1{fill:#3cf;}.cls-2{fill:#4d4d4d;}.cls-3{fill:#fff;}.cls-4{fill:#3cc;}</style></defs><title>payaso</title><g id="Layer_2" data-name="Layer 2"><path class="cls-1" d="M0,999.5s648,10,670-1000v1000Z"/></g><g id="Layer_1" data-name="Layer 1"><path class="cls-2" d="M173.83,799.28c-18.15-2.53-74.43-14.91-94.15-72.18A5.32,5.32,0,0,0,71,725.2c-14.41,13.29-3.14,61,1.11,70.7,4.82,11,18.62,35.57,51.08,43.23,0,0,30.95,12.18,53.83-33.82A4.15,4.15,0,0,0,173.83,799.28Z"/><path class="cls-3" d="M451.74,901.65c25-65.91-14.12-128.59-31.15-146.67q11.1-20.13,22.68-45.55a1.4,1.4,0,0,0-1.36-2c-8.36.53-10.57,3.83-10.83,4.27,0,0,0,0-.05.09-1.09,2.43-50.6,111.54-76.58,107.2-24.71-4.11,24.23-109.06,39.2-125a4.17,4.17,0,0,0,.63-4.81,28.3,28.3,0,0,1-1.46-3.2,2.28,2.28,0,0,0-4.05-.48c-3.88,5.91-11.14,17.33-18.93,31.3A169.69,169.69,0,0,0,320,706C331.66,638.89,367,619.48,367,619.48c8.8,12.06,24,22.94,48.76,13.5,16.81-6.87,24.28-17.22,26.88-27.77,15.58,4.18,84.75,32.15,91.31,152.53C540.47,877.55,470.45,893.44,451.74,901.65Z"/><path class="cls-3" d="M414.11,939.69c-50.25,51.89-160.34,45.67-193.3,10.83C174,901,155.28,820,216.19,757.1c64.37-66.47,135.15-37.9,148.83-31.45-19.33,36.42-38.32,84.36-14.95,99.94,13.37,8.36,38.26-14,66.82-64C470.45,834.34,450.66,902,414.11,939.69Z"/><path class="cls-3" d="M325.16,657.91c-11.38,22.94-13.87,42.16-14.35,47.78-31.15-.09-69,9.19-102.5,43.8-25.13,26-36.66,54.56-39.29,82.49-15.38-19.76-66.27-98.32,14.71-172.73C223.13,630.79,288.79,633,325.16,657.91Z"/><path class="cls-3" d="M415.73,626.42c-39.4,17.51-50.34-26.27-50.34-26.27s49.33-2.26,65.2-29.77C446.45,594.71,435.43,617.66,415.73,626.42Z"/><path class="cls-2" d="M542.67,757.74C536.92,638.57,461.93,602.1,443.77,595c-.13-16-10.53-32.07-10.53-32.07s-22.76,34.95-77.77,34.95c0,0,2.57,5.66,6,12.55a157.48,157.48,0,0,0-33,41.15c-12.54-7.1-85.55-44.54-151.32,3.28,0,0-105.68,69-8.67,194.27,1.44,45.07,22.67,88.11,47.8,109.2,37.47,31.4,140.19,56.57,205.67-11a139.3,139.3,0,0,0,24.54-33.79C479.21,906.57,548.26,873,542.67,757.74ZM430.59,570.38c15.86,24.33,4.84,47.28-14.86,56-39.4,17.51-50.34-26.27-50.34-26.27S414.72,597.89,430.59,570.38ZM173.46,669.44c7.74-8.33,17.52-14.09,27.62-19.31,37.37-19.34,93-13.51,124.08,7.79-11.38,22.93-13.87,42.14-14.35,47.77-31.15-.08-69,9.2-102.5,43.8-25.12,26-36.67,54.56-39.29,82.49C154.34,813.12,107.31,740.7,173.46,669.44ZM414.11,939.69c-50.25,51.89-160.34,45.68-193.3,10.83C174,901,155.28,820,216.19,757.11c64.37-66.47,135.16-37.92,148.83-31.45C345.7,762.07,326.7,810,350.08,825.59c13.37,8.36,38.25-14,66.82-64C470.45,834.35,450.66,902,414.11,939.69Zm37.62-38.05c25-65.9-14.11-128.58-31.14-146.66,7.4-13.41,15-28.58,22.68-45.54a1.4,1.4,0,0,0-1.36-2c-8.36.52-10.57,3.83-10.84,4.26,0,0,0,0,0,.09-1.09,2.43-50.6,111.54-76.58,107.2-24.71-4.12,24.23-109.06,39.2-125a4.2,4.2,0,0,0,.64-4.81,26.84,26.84,0,0,1-1.47-3.2,2.29,2.29,0,0,0-4.06-.48c-3.87,5.91-11.14,17.34-18.92,31.3A169.77,169.77,0,0,0,320,706C331.67,638.89,367,619.48,367,619.48c8.79,12.06,24,22.94,48.76,13.5,16.81-6.87,24.27-17.22,26.88-27.77,15.59,4.18,84.74,32.15,91.31,152.53C540.46,877.54,470.45,893.43,451.73,901.64Z"/><path class="cls-2" d="M256.53,925.75c-25,.66-103.79-3.51-146.56-77.67a7.24,7.24,0,0,0-12.18-.62c-15.45,21.54,13.29,84.45,21.77,96.85,9.59,14,35.09,44.6,80.67,47.72,0,0,44.87,9.68,62.29-58.73A6,6,0,0,0,256.53,925.75Z"/><path class="cls-3" d="M490.69,454A61.8,61.8,0,0,1,487,510.86C458.9,557.35,397.82,604.14,313,603.07,97.08,600.34,81.7,384.28,81.7,384.28c4.22-1.35,32.18,4.61,60.09,14.78-21-128.65,78.05-178.15,108.61-190.23a19.46,19.46,0,0,1,16.44,1.07C308.8,232.8,426.31,307.8,490.69,454Z"/><path class="cls-4" d="M538.31,411.09c-3.57,10.63,6.93,30.42-2,44.82-6.66,10.82-30,12.51-32.85,4.88-21-57.06-81-184.08-239.94-258.82a2.87,2.87,0,0,1-1.19-4.18c27.1-41.94,64.91-39.23,70.29-38.81,85.41,6.68,139,91.48,139,91.48-9.66-49.27-63.19-91.62-115.36-99.94,97-30.43,88.21-23.88,128.21-30.27,48.75-8.93,67.83-32.48,75.06-46.64a36.15,36.15,0,0,0,18.32,5.25,37.27,37.27,0,0,0,5.43-.33C606.21,143,612.45,191,601.74,273.11,592.43,344.48,548.5,380.94,538.31,411.09Z"/><ellipse class="cls-2" cx="182.9" cy="532.91" rx="9.12" ry="19.81" transform="matrix(0.66, -0.75, 0.75, 0.66, -338.64, 319.76)"/><ellipse class="cls-2" cx="235.4" cy="364.81" rx="72.09" ry="50.47" transform="translate(-196.58 408.34) rotate(-62.92)"/><path class="cls-2" d="M235.47,365.31s86.71-42.46,21-126.43c80.81,41,22.3,151.89,22.3,151.89Z"/><path class="cls-2" d="M593.14,75.72a36.18,36.18,0,1,0-38-5.27c-4.27,12.75-20.14,36.73-79,44.09-69.5,8.69-123.82,28.79-138.25,34.52a96.51,96.51,0,0,0-16.39,1.37c-36.06,6.24-58.42,36.1-65.49,47C104.29,256.49,132.12,389.12,132.12,389.12s-52.34-18.86-58.8-6.35c0,0,15.26,232.87,241,227.32,151.43-3.73,189.11-112.37,195.52-136,40.21-3.85,37.95-35.66,38.2-55.91.37-28.75,51-40,63.5-145C623.66,171.94,595.14,81.85,593.14,75.72Zm-97.89,412c-.19,1.33-.43,2.67-.7,4a65.85,65.85,0,0,1-2.25,7.92A61.53,61.53,0,0,1,487,510.86c-1.32,2.17-2.7,4.37-4.18,6.54-1,1.45-2,2.88-3,4.34-1.55,2.17-3.18,4.34-4.87,6.48-1.14,1.43-2.29,2.86-3.49,4.27s-2.4,2.84-3.67,4.24-2.53,2.79-3.86,4.18-2.66,2.77-4,4.13c-33,32.72-83.25,58.83-146.85,58-75.92-1-127-28.29-161.41-63.33-1.54-1.55-3-3.13-4.5-4.72s-2.89-3.19-4.29-4.78c-2.78-3.23-5.46-6.51-8-9.8-1.27-1.66-2.52-3.32-3.72-5s-2.41-3.34-3.57-5-2.28-3.38-3.38-5.05C86.18,447.07,81.7,384.28,81.7,384.28c4.22-1.35,32.19,4.61,60.1,14.79-6.83-42-.91-75.49,11.23-102.06,1.05-2.28,2.13-4.53,3.28-6.7,2.26-4.37,4.7-8.54,7.27-12.52,1.27-2,2.59-3.93,3.95-5.81.66-.94,1.36-1.87,2.05-2.8,1.38-1.84,2.78-3.62,4.2-5.38.71-.86,1.42-1.73,2.16-2.57,2.88-3.4,5.88-6.63,8.92-9.67a184.89,184.89,0,0,1,26.43-21.87q3-2,5.87-3.86c1.48-1,3-1.85,4.41-2.7,3.64-2.19,7.15-4.14,10.48-5.87,1.76-.92,3.48-1.77,5.11-2.58.83-.41,1.65-.79,2.44-1.17,1.17-.56,2.31-1.07,3.41-1.56,0,0,0,0,0,0,1.07-.49,2.13-.94,3.14-1.36,0,0,0,0,0,0l4.2-1.7a21.66,21.66,0,0,1,3.6-1,19.57,19.57,0,0,1,12.82,2.09c2,1.07,4.11,2.26,6.39,3.56q2.28,1.31,4.76,2.77l2.54,1.5c1.72,1,3.5,2.1,5.35,3.24s3.73,2.33,5.67,3.56,4,2.52,6,3.88c5.14,3.37,10.59,7.07,16.3,11.13q3.42,2.44,7,5c1.19.87,2.36,1.76,3.58,2.65q3.57,2.67,7.28,5.55,5.54,4.31,11.25,9,1.92,1.56,3.83,3.16,5.79,4.83,11.7,10l3.94,3.5q4,3.57,8,7.31c8,7.47,16.11,15.5,24.19,24.07q8.1,8.58,16.14,17.92c2.68,3.09,5.35,6.28,8,9.51s5.31,6.55,7.93,9.91,5.26,6.78,7.84,10.27a502.58,502.58,0,0,1,46.84,76.53q3.27,6.54,6.33,13.28,1.58,3.36,3.07,6.8A61.51,61.51,0,0,1,495.25,487.72ZM601.74,273.11c-9.31,71.37-53.24,107.83-63.43,138-3.57,10.63,6.93,30.42-2,44.82-6.66,10.82-30,12.51-32.85,4.88-21-57.06-81-184.08-239.94-258.82a2.87,2.87,0,0,1-1.19-4.18c27.1-41.94,64.91-39.23,70.29-38.81,85.41,6.68,139,91.48,139,91.48-9.66-49.27-63.19-91.62-115.36-99.94,97-30.43,88.21-23.88,128.21-30.27,48.75-8.93,67.83-32.48,75.06-46.64a36.15,36.15,0,0,0,18.32,5.25,37.27,37.27,0,0,0,5.43-.33C606.21,143,612.45,191,601.74,273.11Z"/></g></svg>