<svg id="Camada_2" data-name="Camada 2" xmlns="http://www.w3.org/2000/svg" viewBox="0 0 1000 1000"><defs><style>.cls-1{fill:#4d4d4d;}</style></defs><title>payaso_face</title><ellipse class="cls-1" cx="651.47" cy="637.7" rx="87.58" ry="102.08" transform="translate(-28.63 30.63) rotate(-2.64)"/><path class="cls-1" d="M652.11,638.07s63.94-140.73-112.54-139.22c148.44-58.2,195.9,111.21,195.9,111.21Z"/><ellipse class="cls-1" cx="346.32" cy="637.7" rx="102.08" ry="87.58" transform="translate(-306.63 954.34) rotate(-87.36)"/><path class="cls-1" d="M345.69,638.07S281.74,497.34,458.22,498.85c-148.44-58.2-195.89,111.21-195.89,111.21Z"/><ellipse class="cls-1" cx="502.9" cy="911.16" rx="43.03" ry="22.95"/><path class="cls-1" d="M170.1,506.64c-11.47-15.3,15.3-42.07,24.86-47.81l15.31-7.65-14.06,2.35C209.21,341,289.64,324,289.64,324s15.3-3.82,17.21-13.39Q299,312.55,291.74,315c-45-42.36,124.89-132.83,171.94-153.54,47.82-21,21-80.33,21-80.33h24.87s19.12,63.12,42.07,76.51S718.14,239,713.36,331.81c-4.94-4.95-6.78-8.3-6.78-11.64-7.65,5.73,0,15.3,0,15.3s21,21,38.26,32.51c13.52,9,51.31,27,51,84.27a56.08,56.08,0,0,0-7-3.92c1.28,1.66,58.73,76.31,10.5,60.23-55.66-18.56-266.81-175-569-14.35C230.35,494.21,202.61,518.12,170.1,506.64ZM348.85,963.76A367.74,367.74,0,0,0,486.64,993.4c68.26,1.17,124.3-8,170.16-24.61l7.4-2.68,6.27-2.58c237.72-97.89,181.19-404,151.48-440.11,12-5.84,21.08-20,8-37.81A141.37,141.37,0,0,0,802.58,457c1.34-12.51,3.25-64.64-52-94.79-13.33-10.36-22.91-17.86-29.68-23.6.4.08-.34-.65-.34-.65s56.8-69.46-161.24-190C523,128.91,521.06,81.09,521.06,81.09s-21-24.86-49.72,0c0,0,32.51,49.73-17.22,72.68C238.34,262.48,260.87,311.62,271.3,323.15c-77.52,37-85.38,114.93-86.15,133.33-9,6.35-42.17,32.11-18.87,52.08,3.94,3.38,12,5.3,16.25,6.69C94.88,734.4,197,895.65,343,961.19Zm134,16.69c-374.87-27.21-327-411.65-286.89-465.2,16.64-3.1,38.25-13.39,38.25-13.39s285.94-151,564.33,20.31C871.07,584.1,880.46,1009.31,482.81,980.45Z"/><circle class="cls-1" cx="500.03" cy="58.14" r="51.64"/><path class="cls-1" d="M420.59,731s64.74-75.35,82-75.23c16.63.11,82.55,74.6,82.55,74.6l-10.76-3.67s-59.65-53.81-72.47-54.9c-13.17-1.12-70.18,54.85-70.18,54.85Z"/></svg>